<svg xmlns="http://www.w3.org/2000/svg" version="1.1" xmlns:xlink="http://www.w3.org/1999/xlink" width="1500" height="106" viewBox="0 0 1500 106"><svg xml:space="preserve" width="1500" height="106" data-version="2" data-id="lg_7vf2QRh8LUH9uBH4go" viewBox="0 0 458 106" x="0" y="0"><rect width="100%" height="100%" fill="transparent"></rect><circle r="59.323" fill="#7f7364" transform="translate(56.565 53)scale(.8739)"></circle><path fill="#7f7364" d="M128.995 18.82h28.84v46.01q0 3.92-1.29 7.12-1.29 3.21-3.65 5.43-2.36 2.23-5.65 3.43-3.3 1.2-7.21 1.2-7.21 0-11.62-3.87-4.4-3.87-5.65-10.28l6.77-1.6q.89 4 3.38 6.54 2.49 2.54 7.3 2.54 4.8 0 7.47-2.94t2.67-8.9V25.41h-21.36zm48.77 63.19q-2.84 0-4.14-1.42-1.29-1.43-1.29-3.74v-1.16q0-2.31 1.29-3.74 1.3-1.42 4.14-1.42 2.85 0 4.14 1.42 1.29 1.43 1.29 3.74v1.16q0 2.31-1.29 3.74-1.29 1.42-4.14 1.42m19.67-1.07V15.08h7.12V42.5h.36q1.69-3.92 4.76-6.23 3.07-2.32 8.23-2.32 7.12 0 11.26 4.59 4.14 4.58 4.14 12.94v29.46h-7.12V52.73q0-12.37-10.41-12.37-2.14 0-4.14.53-2 .54-3.61 1.61-1.6 1.06-2.53 2.71-.94 1.65-.94 3.87v31.86zm78.86 0v-7.47h-.36q-.71 1.6-1.74 3.16-1.02 1.55-2.53 2.76-1.51 1.2-3.65 1.91-2.14.71-4.98.71-7.12 0-11.31-4.58-4.18-4.59-4.18-12.95V35.02h7.12v28.21q0 12.37 10.5 12.37 2.14 0 4.14-.53 2-.53 3.56-1.6t2.49-2.72q.94-1.64.94-3.96V35.02h7.12v45.92zm29.37 0h-7.12V35.02h7.12v7.48h.35q1.69-3.92 4.76-6.23 3.07-2.32 8.24-2.32 7.12 0 11.25 4.59 4.14 4.58 4.14 12.94v29.46h-7.12V52.73q0-12.37-10.41-12.37-2.14 0-4.14.53-2 .54-3.6 1.61-1.6 1.06-2.54 2.71-.93 1.65-.93 3.87zm62.47 0h-8.9q-3.73 0-5.65-2.09-1.91-2.09-1.91-5.47V41.25h-7.57v-6.23h4.28q2.31 0 3.16-.93.84-.94.84-3.25v-8.55h6.41v12.73h10.06v6.23h-10.06v33.46h9.34zm29.46 1.07q-4.71 0-8.5-1.69-3.78-1.69-6.49-4.85-2.72-3.16-4.19-7.56-1.46-4.41-1.46-9.93 0-5.43 1.46-9.88 1.47-4.45 4.19-7.61 2.71-3.16 6.49-4.85 3.79-1.69 8.5-1.69 4.63 0 8.28 1.69 3.65 1.69 6.23 4.68 2.58 2.98 3.96 7.07t1.38 8.99v3.38h-33.02v2.14q0 2.93.94 5.47.93 2.54 2.67 4.41 1.73 1.87 4.27 2.93 2.53 1.07 5.74 1.07 4.36 0 7.61-2.05 3.25-2.04 5.03-5.87l5.07 3.65q-2.23 4.72-6.94 7.61-4.72 2.89-11.22 2.89m0-42.1q-2.93 0-5.34 1.03-2.4 1.02-4.14 2.89-1.73 1.87-2.71 4.41-.98 2.53-.98 5.56v.62h25.37v-.98q0-6.14-3.34-9.83-3.34-3.7-8.86-3.7m38.72 41.03h-7.12V35.02h7.12v8.45h.44q1.25-3.29 4.45-5.87 3.21-2.58 8.81-2.58h2.76v7.12h-4.18q-5.78 0-9.03 2.18-3.25 2.18-3.25 5.47z"></path><path fill="#fff" d="M29.775 32.43h18.15v28.95q0 2.46-.82 4.48-.81 2.01-2.29 3.41-1.49 1.4-3.56 2.16-2.07.76-4.53.76-4.54 0-7.31-2.44-2.77-2.44-3.56-6.47l4.26-1.01q.56 2.52 2.13 4.12 1.56 1.6 4.59 1.6 3.02 0 4.7-1.85 1.68-1.85 1.68-5.6V36.57h-13.44zm52.75 39.08V53.82h-19.76v17.69h-4.71V32.43h4.71v17.24h19.76V32.43h4.71v39.08z" paint-order="stroke"></path></svg></svg>