<svg xmlns="http://www.w3.org/2000/svg" version="1.1" xmlns:xlink="http://www.w3.org/1999/xlink" width="1500" height="106" viewBox="0 0 1500 106"><svg xml:space="preserve" width="1500" height="106" data-version="2" data-id="lg_7vf2QRh8LUH9uBH4go" viewBox="0 0 334 106" x="0" y="0"><rect width="100%" height="100%" fill="transparent"></rect><circle r="59.323" fill="#7f7364" transform="translate(55.15 53)scale(.8739)"></circle><path fill="#7f7364" d="M145.65 76.54V53.79h-25.42v22.75h-6.04V26.29h6.04v22.17h25.42V26.29h6.05v50.25zm41.76 0v-6.05h-.29q-.57 1.3-1.4 2.56t-2.05 2.23q-1.23.97-2.96 1.55-1.72.58-4.03.58-5.76 0-9.14-3.71-3.39-3.71-3.39-10.48V39.39h5.76v22.82q0 10.01 8.5 10.01 1.73 0 3.35-.43t2.88-1.3q1.26-.86 2.01-2.19.76-1.33.76-3.21v-25.7h5.76v37.15zm23.76 0h-5.76V39.39h5.76v6.05h.29q1.37-3.17 3.85-5.04t6.66-1.87q5.76 0 9.11 3.7 3.35 3.71 3.35 10.48v23.83h-5.76V53.72q0-10.01-8.43-10.01-1.73 0-3.35.43t-2.91 1.3q-1.3.86-2.05 2.19-.76 1.34-.76 3.14zm50.54 0h-7.2q-3.02 0-4.57-1.69-1.55-1.69-1.55-4.43V44.43h-6.12v-5.04h3.46q1.87 0 2.56-.76.68-.75.68-2.62v-6.92h5.18v10.3h8.14v5.04h-8.14V71.5h7.56zm23.84.87q-3.82 0-6.88-1.37t-5.26-3.93q-2.19-2.55-3.38-6.12-1.19-3.56-1.19-8.02 0-4.4 1.19-8 1.19-3.6 3.38-6.15 2.2-2.56 5.26-3.93 3.06-1.36 6.88-1.36 3.74 0 6.69 1.36 2.95 1.37 5.04 3.78 2.09 2.42 3.21 5.73 1.11 3.31 1.11 7.27v2.74h-26.71v1.72q0 2.38.76 4.43.75 2.05 2.16 3.57 1.4 1.51 3.45 2.37 2.05.87 4.65.87 3.52 0 6.15-1.66 2.63-1.66 4.07-4.75l4.1 2.95q-1.8 3.82-5.61 6.16-3.82 2.34-9.07 2.34m0-34.06q-2.38 0-4.32.83-1.95.83-3.35 2.34-1.41 1.51-2.2 3.56-.79 2.05-.79 4.5v.51h20.52v-.8q0-4.96-2.7-7.95t-7.16-2.99m31.32 33.19h-5.76V39.39h5.76v6.84h.36q1-2.66 3.6-4.75 2.59-2.09 7.12-2.09h2.24v5.76h-3.39q-4.68 0-7.31 1.76-2.62 1.77-2.62 4.43z"></path><path fill="#fff" d="M28.36 32.43h18.15v28.95q0 2.46-.82 4.48-.81 2.01-2.29 3.41-1.49 1.4-3.56 2.16-2.07.76-4.53.76-4.54 0-7.31-2.44-2.77-2.44-3.56-6.47l4.26-1.01q.56 2.52 2.13 4.12 1.56 1.6 4.59 1.6 3.02 0 4.7-1.85 1.68-1.85 1.68-5.6V36.57H28.36zm52.75 39.08V53.82H61.35v17.69h-4.71V32.43h4.71v17.24h19.76V32.43h4.71v39.08z" paint-order="stroke"></path></svg></svg>